<svg width="514" height="364" viewBox="0 0 514 364" fill="none" xmlns="http://www.w3.org/2000/svg">
<g clip-path="url(#clip0_883_1910)">
<path d="M262.309 357.213C381.912 357.213 478.869 351.885 478.869 345.312C478.869 338.739 381.912 333.411 262.309 333.411C142.707 333.411 45.75 338.739 45.75 345.312C45.75 351.885 142.707 357.213 262.309 357.213Z" fill="url(#paint0_linear_883_1910)"/>
<path d="M102.875 308.294C195.542 371.727 290.047 321.454 326.866 244.503C363.685 167.552 323.113 71.3298 236.208 29.6111C149.302 -12.1076 173.567 128.033 49.1108 75.7856C-36.8937 39.6507 23.3076 253.847 102.875 308.294Z" fill="#E0E8F6"/>
<path d="M158.684 194.813C158.684 234.453 174.402 272.47 202.38 300.501C230.359 328.531 268.306 344.278 307.873 344.278C347.441 344.278 385.388 328.531 413.366 300.501C441.344 272.47 457.063 234.453 457.063 194.813C457.063 112.278 399.639 -11.3368 307.892 80.5797C249.661 138.937 158.684 112.278 158.684 194.813Z" fill="#C6D9F4"/>
<path d="M81.3501 345.312C65.6242 313.896 63.7852 273.982 63.7852 230.628C63.7852 23.8205 203.535 90.6005 246.941 170.372C295.376 259.355 391.814 125.814 430.116 230.628C445.035 271.407 424.017 313.971 405.232 345.312H81.3501Z" fill="#FEE8E6"/>
<path d="M139.229 55.0712C154.705 34.9906 158.43 11.8883 147.549 3.47062C136.668 -4.94704 115.3 4.50758 99.8236 24.5881C84.347 44.6686 80.6219 67.771 91.5034 76.1886C102.385 84.6063 123.752 75.1517 139.229 55.0712Z" fill="#FEE8E6"/>
<g opacity="0.5">
<path opacity="0.5" d="M443.058 181.069L441.027 183.103L443.058 185.137L445.088 183.103L443.058 181.069Z" fill="white"/>
<path opacity="0.5" d="M431.108 181.026L429.078 183.06L431.108 185.094L433.139 183.06L431.108 181.026Z" fill="white"/>
<path opacity="0.5" d="M419.163 181.053L417.133 183.087L419.163 185.121L421.193 183.087L419.163 181.053Z" fill="white"/>
<path opacity="0.5" d="M407.218 181.048L405.188 183.082L407.218 185.116L409.248 183.082L407.218 181.048Z" fill="white"/>
<path opacity="0.5" d="M395.272 181.094L393.242 183.128L395.272 185.162L397.303 183.128L395.272 181.094Z" fill="white"/>
<path opacity="0.5" d="M454.987 181.056L452.957 183.09L454.987 185.124L457.018 183.09L454.987 181.056Z" fill="white"/>
<path opacity="0.5" d="M443.042 198.069L441.012 200.103L443.042 202.137L445.072 200.103L443.042 198.069Z" fill="white"/>
<path opacity="0.5" d="M431.093 198.026L429.062 200.06L431.093 202.094L433.123 200.06L431.093 198.026Z" fill="white"/>
<path opacity="0.5" d="M419.151 198.053L417.121 200.087L419.151 202.121L421.182 200.087L419.151 198.053Z" fill="white"/>
<path opacity="0.5" d="M407.222 198.048L405.191 200.082L407.222 202.116L409.252 200.082L407.222 198.048Z" fill="white"/>
<path opacity="0.5" d="M395.276 198.094L393.246 200.128L395.276 202.162L397.307 200.128L395.276 198.094Z" fill="white"/>
<path opacity="0.5" d="M454.972 198.056L452.941 200.09L454.972 202.124L457.002 200.09L454.972 198.056Z" fill="white"/>
<path opacity="0.5" d="M443.061 215.064L441.031 217.098L443.061 219.132L445.092 217.098L443.061 215.064Z" fill="white"/>
<path opacity="0.5" d="M431.112 215.04L429.082 217.074L431.112 219.108L433.143 217.074L431.112 215.04Z" fill="white"/>
<path opacity="0.5" d="M419.167 215.067L417.137 217.101L419.167 219.135L421.197 217.101L419.167 215.067Z" fill="white"/>
<path opacity="0.5" d="M407.218 215.061L405.188 217.095L407.218 219.129L409.248 217.095L407.218 215.061Z" fill="white"/>
<path opacity="0.5" d="M395.276 215.107L393.246 217.141L395.276 219.175L397.307 217.141L395.276 215.107Z" fill="white"/>
<path opacity="0.5" d="M454.991 215.069L452.961 217.103L454.991 219.137L457.021 217.103L454.991 215.069Z" fill="white"/>
<path opacity="0.5" d="M443.046 232.101L441.016 234.135L443.046 236.169L445.076 234.135L443.046 232.101Z" fill="white"/>
<path opacity="0.5" d="M431.116 232.059L429.086 234.093L431.116 236.127L433.146 234.093L431.116 232.059Z" fill="white"/>
<path opacity="0.5" d="M419.155 232.104L417.125 234.138L419.155 236.172L421.185 234.138L419.155 232.104Z" fill="white"/>
<path opacity="0.5" d="M407.222 232.099L405.191 234.133L407.222 236.167L409.252 234.133L407.222 232.099Z" fill="white"/>
<path opacity="0.5" d="M395.264 232.024L393.234 234.058L395.265 236.092L397.295 234.057L395.264 232.024Z" fill="white"/>
<path opacity="0.5" d="M454.976 232.069L452.945 234.103L454.976 236.137L457.006 234.103L454.976 232.069Z" fill="white"/>
<path opacity="0.5" d="M443.061 249.115L441.031 251.149L443.061 253.183L445.092 251.149L443.061 249.115Z" fill="white"/>
<path opacity="0.5" d="M431.112 249.072L429.082 251.106L431.112 253.14L433.143 251.106L431.112 249.072Z" fill="white"/>
<path opacity="0.5" d="M419.171 249.099L417.141 251.133L419.171 253.167L421.201 251.133L419.171 249.099Z" fill="white"/>
<path opacity="0.5" d="M407.241 249.112L405.211 251.146L407.241 253.18L409.271 251.146L407.241 249.112Z" fill="white"/>
<path opacity="0.5" d="M395.264 249.035L393.234 251.069L395.265 253.103L397.295 251.069L395.264 249.035Z" fill="white"/>
<path opacity="0.5" d="M454.991 249.083L452.961 251.117L454.991 253.15L457.021 251.117L454.991 249.083Z" fill="white"/>
<path opacity="0.5" d="M443.05 266.115L441.02 268.149L443.05 270.183L445.08 268.149L443.05 266.115Z" fill="white"/>
<path opacity="0.5" d="M431.12 266.072L429.09 268.106L431.12 270.14L433.15 268.106L431.12 266.072Z" fill="white"/>
<path opacity="0.5" d="M419.155 266.099L417.125 268.133L419.155 270.167L421.185 268.133L419.155 266.099Z" fill="white"/>
<path opacity="0.5" d="M407.226 266.094L405.195 268.128L407.226 270.162L409.256 268.128L407.226 266.094Z" fill="white"/>
<path opacity="0.5" d="M395.272 266.033L393.242 268.067L395.273 270.101L397.303 268.067L395.272 266.033Z" fill="white"/>
<path opacity="0.5" d="M454.979 266.083L452.949 268.117L454.979 270.151L457.01 268.117L454.979 266.083Z" fill="white"/>
<path opacity="0.5" d="M443.054 283.077L441.023 285.111L443.054 287.145L445.084 285.111L443.054 283.077Z" fill="white"/>
<path opacity="0.5" d="M431.104 283.034L429.074 285.068L431.104 287.102L433.135 285.068L431.104 283.034Z" fill="white"/>
<path opacity="0.5" d="M419.159 283.08L417.129 285.114L419.159 287.148L421.189 285.114L419.159 283.08Z" fill="white"/>
<path opacity="0.5" d="M407.21 283.075L405.18 285.109L407.21 287.143L409.24 285.109L407.21 283.075Z" fill="white"/>
<path opacity="0.5" d="M395.269 283.102L393.238 285.136L395.269 287.17L397.299 285.136L395.269 283.102Z" fill="white"/>
<path opacity="0.5" d="M454.983 283.083L452.953 285.117L454.983 287.151L457.014 285.117L454.983 283.083Z" fill="white"/>
<path opacity="0.5" d="M443.05 300.091L441.02 302.125L443.05 304.159L445.08 302.125L443.05 300.091Z" fill="white"/>
<path opacity="0.5" d="M431.101 300.048L429.07 302.082L431.101 304.116L433.131 302.082L431.101 300.048Z" fill="white"/>
<path opacity="0.5" d="M419.159 300.093L417.129 302.127L419.159 304.161L421.189 302.127L419.159 300.093Z" fill="white"/>
<path opacity="0.5" d="M407.229 300.088L405.199 302.122L407.229 304.156L409.26 302.122L407.229 300.088Z" fill="white"/>
<path opacity="0.5" d="M395.288 300.115L393.258 302.149L395.288 304.183L397.318 302.149L395.288 300.115Z" fill="white"/>
<path opacity="0.5" d="M454.979 300.096L452.949 302.13L454.979 304.164L457.01 302.13L454.979 300.096Z" fill="white"/>
<path opacity="0.5" d="M443.054 317.091L441.023 319.125L443.054 321.159L445.084 319.125L443.054 317.091Z" fill="white"/>
<path opacity="0.5" d="M431.108 317.048L429.078 319.082L431.108 321.116L433.139 319.082L431.108 317.048Z" fill="white"/>
<path opacity="0.5" d="M419.163 317.093L417.133 319.127L419.163 321.161L421.193 319.127L419.163 317.093Z" fill="white"/>
<path opacity="0.5" d="M407.214 317.088L405.184 319.122L407.214 321.156L409.244 319.122L407.214 317.088Z" fill="white"/>
<path opacity="0.5" d="M395.272 317.115L393.242 319.149L395.272 321.183L397.303 319.149L395.272 317.115Z" fill="white"/>
<path opacity="0.5" d="M454.983 317.077L452.953 319.111L454.983 321.145L457.014 319.111L454.983 317.077Z" fill="white"/>
<path opacity="0.5" d="M443.054 164.069L441.023 166.103L443.054 168.137L445.084 166.103L443.054 164.069Z" fill="white"/>
<path opacity="0.5" d="M431.104 164.026L429.074 166.06L431.104 168.094L433.135 166.06L431.104 164.026Z" fill="white"/>
<path opacity="0.5" d="M419.159 164.072L417.129 166.106L419.159 168.14L421.189 166.106L419.159 164.072Z" fill="white"/>
<path opacity="0.5" d="M407.229 164.067L405.199 166.101L407.229 168.135L409.26 166.101L407.229 164.067Z" fill="white"/>
<path opacity="0.5" d="M395.288 164.094L393.258 166.128L395.288 168.162L397.318 166.128L395.288 164.094Z" fill="white"/>
<path opacity="0.5" d="M454.983 164.056L452.953 166.09L454.983 168.124L457.014 166.09L454.983 164.056Z" fill="white"/>
<path opacity="0.5" d="M443.054 334.104L441.023 336.138L443.054 338.172L445.084 336.138L443.054 334.104Z" fill="white"/>
<path opacity="0.5" d="M431.124 334.061L429.094 336.095L431.124 338.129L433.154 336.095L431.124 334.061Z" fill="white"/>
<path opacity="0.5" d="M419.163 334.088L417.133 336.122L419.163 338.156L421.193 336.122L419.163 334.088Z" fill="white"/>
<path opacity="0.5" d="M407.233 334.083L405.203 336.117L407.233 338.151L409.264 336.117L407.233 334.083Z" fill="white"/>
<path opacity="0.5" d="M395.288 334.128L393.258 336.162L395.288 338.196L397.318 336.162L395.288 334.128Z" fill="white"/>
<path opacity="0.5" d="M454.983 334.09L452.953 336.124L454.983 338.158L457.014 336.124L454.983 334.09Z" fill="white"/>
</g>
<g opacity="0.5">
<path opacity="0.5" d="M13.9677 317.091L11.9375 319.125L13.9677 321.159L15.998 319.125L13.9677 317.091Z" fill="white"/>
<path opacity="0.5" d="M25.9287 317.064L23.8984 319.098L25.9287 321.132L27.9589 319.098L25.9287 317.064Z" fill="white"/>
<path opacity="0.5" d="M37.8427 317.088L35.8125 319.122L37.8427 321.156L39.873 319.122L37.8427 317.088Z" fill="white"/>
<path opacity="0.5" d="M49.792 317.093L47.7617 319.127L49.792 321.161L51.8222 319.127L49.792 317.093Z" fill="white"/>
<path opacity="0.5" d="M61.7334 317.104L59.7031 319.138L61.7334 321.172L63.7636 319.138L61.7334 317.104Z" fill="white"/>
<path opacity="0.5" d="M2.01853 317.104L-0.0117188 319.138L2.01852 321.172L4.04876 319.138L2.01853 317.104Z" fill="white"/>
<path opacity="0.5" d="M13.9638 300.091L11.9336 302.125L13.9638 304.159L15.9941 302.125L13.9638 300.091Z" fill="white"/>
<path opacity="0.5" d="M25.9248 300.064L23.8945 302.098L25.9248 304.132L27.955 302.098L25.9248 300.064Z" fill="white"/>
<path opacity="0.5" d="M37.8545 300.088L35.8242 302.122L37.8545 304.156L39.8847 302.122L37.8545 300.088Z" fill="white"/>
<path opacity="0.5" d="M49.7841 300.093L47.7539 302.127L49.7841 304.161L51.8144 302.127L49.7841 300.093Z" fill="white"/>
<path opacity="0.5" d="M61.7295 300.104L59.6992 302.138L61.7295 304.172L63.7597 302.138L61.7295 300.104Z" fill="white"/>
<path opacity="0.5" d="M2.01462 300.104L-0.015625 302.138L2.01461 304.172L4.04486 302.138L2.01462 300.104Z" fill="white"/>
<path opacity="0.5" d="M13.9638 283.077L11.9336 285.111L13.9638 287.145L15.9941 285.111L13.9638 283.077Z" fill="white"/>
<path opacity="0.5" d="M25.9287 283.05L23.8984 285.084L25.9287 287.118L27.9589 285.084L25.9287 283.05Z" fill="white"/>
<path opacity="0.5" d="M37.8388 283.074L35.8086 285.108L37.8388 287.142L39.8691 285.108L37.8388 283.074Z" fill="white"/>
<path opacity="0.5" d="M49.7881 283.08L47.7578 285.114L49.7881 287.148L51.8183 285.114L49.7881 283.08Z" fill="white"/>
<path opacity="0.5" d="M61.7295 283.091L59.6992 285.125L61.7295 287.159L63.7597 285.125L61.7295 283.091Z" fill="white"/>
<path opacity="0.5" d="M2.01853 283.091L-0.0117188 285.125L2.01852 287.159L4.04876 285.125L2.01853 283.091Z" fill="white"/>
<path opacity="0.5" d="M13.9599 266.096L11.9297 268.13L13.9599 270.164L15.9902 268.13L13.9599 266.096Z" fill="white"/>
<path opacity="0.5" d="M25.9248 266.069L23.8945 268.103L25.9248 270.137L27.955 268.103L25.9248 266.069Z" fill="white"/>
<path opacity="0.5" d="M37.8349 266.093L35.8047 268.127L37.8349 270.161L39.8652 268.127L37.8349 266.093Z" fill="white"/>
<path opacity="0.5" d="M49.7841 266.098L47.7539 268.132L49.7841 270.166L51.8144 268.132L49.7841 266.098Z" fill="white"/>
<path opacity="0.5" d="M61.7564 266.044L59.7266 268.079L61.7572 270.112L63.787 268.078L61.7564 266.044Z" fill="white"/>
<path opacity="0.5" d="M2.01462 266.091L-0.015625 268.125L2.01461 270.159L4.04486 268.125L2.01462 266.091Z" fill="white"/>
<path opacity="0.5" d="M13.956 249.096L11.9258 251.13L13.956 253.164L15.9863 251.13L13.956 249.096Z" fill="white"/>
<path opacity="0.5" d="M25.9209 249.069L23.8906 251.103L25.9209 253.137L27.9511 251.103L25.9209 249.069Z" fill="white"/>
<path opacity="0.5" d="M37.8506 249.093L35.8203 251.127L37.8506 253.161L39.8808 251.127L37.8506 249.093Z" fill="white"/>
<path opacity="0.5" d="M49.7802 249.098L47.75 251.132L49.7802 253.166L51.8105 251.132L49.7802 249.098Z" fill="white"/>
<path opacity="0.5" d="M61.7486 249.046L59.7188 251.081L61.7493 253.114L63.7792 251.08L61.7486 249.046Z" fill="white"/>
<path opacity="0.5" d="M2.02634 249.091L-0.00390625 251.125L2.02633 253.159L4.05658 251.125L2.02634 249.091Z" fill="white"/>
<path opacity="0.5" d="M13.9599 232.083L11.9297 234.117L13.9599 236.151L15.9902 234.117L13.9599 232.083Z" fill="white"/>
<path opacity="0.5" d="M25.9209 232.056L23.8906 234.09L25.9209 236.124L27.9511 234.09L25.9209 232.056Z" fill="white"/>
<path opacity="0.5" d="M37.8506 232.08L35.8203 234.114L37.8506 236.148L39.8808 234.114L37.8506 232.08Z" fill="white"/>
<path opacity="0.5" d="M49.7802 232.085L47.75 234.119L49.7802 236.153L51.8105 234.119L49.7802 232.085Z" fill="white"/>
<path opacity="0.5" d="M61.7486 232.035L59.7188 234.069L61.7493 236.103L63.7792 234.069L61.7486 232.035Z" fill="white"/>
<path opacity="0.5" d="M2.01071 232.077L-0.0195312 234.111L2.01071 236.145L4.04095 234.111L2.01071 232.077Z" fill="white"/>
<path opacity="0.5" d="M13.9716 215.083L11.9414 217.117L13.9716 219.151L16.0019 217.117L13.9716 215.083Z" fill="white"/>
<path opacity="0.5" d="M25.917 215.056L23.8867 217.09L25.917 219.124L27.9472 217.09L25.917 215.056Z" fill="white"/>
<path opacity="0.5" d="M37.8467 215.061L35.8164 217.095L37.8466 219.129L39.8769 217.095L37.8467 215.061Z" fill="white"/>
<path opacity="0.5" d="M49.7959 215.066L47.7656 217.1L49.7959 219.134L51.8261 217.1L49.7959 215.066Z" fill="white"/>
<path opacity="0.5" d="M61.7373 215.077L59.707 217.111L61.7373 219.145L63.7675 217.111L61.7373 215.077Z" fill="white"/>
<path opacity="0.5" d="M2.02243 215.077L-0.0078125 217.111L2.02243 219.145L4.05267 217.111L2.02243 215.077Z" fill="white"/>
<path opacity="0.5" d="M13.956 198.069L11.9258 200.103L13.956 202.137L15.9863 200.103L13.956 198.069Z" fill="white"/>
<path opacity="0.5" d="M25.917 198.042L23.8867 200.076L25.917 202.11L27.9472 200.076L25.917 198.042Z" fill="white"/>
<path opacity="0.5" d="M37.8467 198.066L35.8164 200.1L37.8466 202.134L39.8769 200.1L37.8467 198.066Z" fill="white"/>
<path opacity="0.5" d="M49.7763 198.072L47.7461 200.106L49.7763 202.14L51.8066 200.106L49.7763 198.072Z" fill="white"/>
<path opacity="0.5" d="M61.7216 198.064L59.6914 200.098L61.7216 202.132L63.7519 200.098L61.7216 198.064Z" fill="white"/>
<path opacity="0.5" d="M2.00681 198.064L-0.0234375 200.098L2.0068 202.132L4.03705 200.098L2.00681 198.064Z" fill="white"/>
<path opacity="0.5" d="M13.9716 181.069L11.9414 183.103L13.9716 185.137L16.0019 183.103L13.9716 181.069Z" fill="white"/>
<path opacity="0.5" d="M25.9131 181.042L23.8828 183.076L25.9131 185.11L27.9433 183.076L25.9131 181.042Z" fill="white"/>
<path opacity="0.5" d="M37.8427 181.066L35.8125 183.1L37.8427 185.134L39.873 183.1L37.8427 181.066Z" fill="white"/>
<path opacity="0.5" d="M49.792 181.072L47.7617 183.106L49.792 185.14L51.8222 183.106L49.792 181.072Z" fill="white"/>
<path opacity="0.5" d="M61.7334 181.064L59.7031 183.098L61.7334 185.132L63.7636 183.098L61.7334 181.064Z" fill="white"/>
<path opacity="0.5" d="M2.02243 181.064L-0.0078125 183.098L2.02243 185.132L4.05267 183.098L2.02243 181.064Z" fill="white"/>
<path opacity="0.5" d="M13.9677 334.104L11.9375 336.138L13.9677 338.172L15.998 336.138L13.9677 334.104Z" fill="white"/>
<path opacity="0.5" d="M25.9287 334.077L23.8984 336.111L25.9287 338.145L27.9589 336.111L25.9287 334.077Z" fill="white"/>
<path opacity="0.5" d="M37.8584 334.101L35.8281 336.135L37.8584 338.169L39.8886 336.135L37.8584 334.101Z" fill="white"/>
<path opacity="0.5" d="M49.7881 334.106L47.7578 336.14L49.7881 338.174L51.8183 336.14L49.7881 334.106Z" fill="white"/>
<path opacity="0.5" d="M61.7334 334.117L59.7031 336.151L61.7334 338.185L63.7636 336.151L61.7334 334.117Z" fill="white"/>
<path opacity="0.5" d="M2.01853 334.117L-0.0117188 336.151L2.01852 338.185L4.04876 336.151L2.01853 334.117Z" fill="white"/>
<path opacity="0.5" d="M13.9677 164.069L11.9375 166.103L13.9677 168.137L15.998 166.103L13.9677 164.069Z" fill="white"/>
<path opacity="0.5" d="M25.9287 164.042L23.8984 166.076L25.9287 168.11L27.9589 166.076L25.9287 164.042Z" fill="white"/>
<path opacity="0.5" d="M37.8584 164.066L35.8281 166.1L37.8584 168.134L39.8886 166.1L37.8584 164.066Z" fill="white"/>
<path opacity="0.5" d="M49.7881 164.072L47.7578 166.106L49.7881 168.14L51.8183 166.106L49.7881 164.072Z" fill="white"/>
<path opacity="0.5" d="M61.7295 164.064L59.6992 166.098L61.7295 168.132L63.7597 166.098L61.7295 164.064Z" fill="white"/>
<path opacity="0.5" d="M2.01853 164.083L-0.0117188 166.117L2.01852 168.151L4.04876 166.117L2.01853 164.083Z" fill="white"/>
</g>
<path d="M408.498 77.5152L358.168 89.3408L409.756 108.48L407.691 94.5674L415.16 87.9872L373.969 88.2128L408.986 84.4715L410.769 81.4069L413.79 76.2368L408.498 77.5152Z" fill="#FFD648"/>
<path fill-rule="evenodd" clip-rule="evenodd" d="M429.045 87.5736V89.0964C428.194 89.0964 427.35 89.0588 426.512 88.9836V87.4608C427.337 87.4796 428.182 87.5172 429.045 87.5736Z" fill="white"/>
<path fill-rule="evenodd" clip-rule="evenodd" d="M421.879 87.3856L424.45 87.4044L424.412 88.9272L421.879 88.9084V87.3856Z" fill="white"/>
<path fill-rule="evenodd" clip-rule="evenodd" d="M417.301 87.4608L419.872 87.3856L419.89 88.9084L417.357 88.9836L417.301 87.4608Z" fill="white"/>
<path fill-rule="evenodd" clip-rule="evenodd" d="M440.004 90.1493L440.229 88.6452L442.763 89.04L442.519 90.5441L440.004 90.1493Z" fill="white"/>
<path fill-rule="evenodd" clip-rule="evenodd" d="M435.67 88.0812C436.514 88.0812 437.377 88.2504 438.222 88.3632L438.034 89.8861C437.19 89.7545 436.345 89.6981 435.52 89.5853L435.67 88.0812Z" fill="white"/>
<path fill-rule="evenodd" clip-rule="evenodd" d="M433.665 87.8932L433.533 89.3973L431 89.2093L431.113 87.6864C431.957 87.7428 432.802 87.7992 433.665 87.8932Z" fill="white"/>
<path fill-rule="evenodd" clip-rule="evenodd" d="M453.741 91.8037C454.548 92.1045 455.374 92.3865 456.181 92.725L455.58 94.135C454.811 93.8154 454.023 93.5334 453.234 93.2326L453.741 91.8037Z" fill="white"/>
<path fill-rule="evenodd" clip-rule="evenodd" d="M451.789 91.1645L451.339 92.6121C450.551 92.3489 449.725 92.1421 448.918 91.9353L449.312 90.4501C450.138 90.6757 450.963 90.9577 451.789 91.1645Z" fill="white"/>
<path fill-rule="evenodd" clip-rule="evenodd" d="M444.527 90.9577L444.809 89.4536C445.653 89.604 446.498 89.8109 447.323 89.9989L446.986 91.4841C446.16 91.2585 445.353 91.0705 444.527 90.9577Z" fill="white"/>
<path fill-rule="evenodd" clip-rule="evenodd" d="M464.684 100.057L465.791 99.0232C466.384 99.7018 466.941 100.411 467.461 101.148L466.204 101.994C465.716 101.336 465.228 100.678 464.684 100.057Z" fill="white"/>
<path fill-rule="evenodd" clip-rule="evenodd" d="M461.305 97.1807L462.168 95.9211C462.9 96.4287 463.575 97.0115 464.27 97.5379L463.275 98.6848C462.618 98.196 461.999 97.6507 461.305 97.1807Z" fill="white"/>
<path fill-rule="evenodd" clip-rule="evenodd" d="M457.422 94.9622L458.097 93.5898L460.406 94.8118L459.636 96.1279L457.422 94.9622Z" fill="white"/>
<path fill-rule="evenodd" clip-rule="evenodd" d="M469.824 112.541C469.655 113.406 469.448 114.271 469.261 115.135L467.797 114.741C467.966 113.932 468.153 113.124 468.304 112.315L469.824 112.541Z" fill="white"/>
<path fill-rule="evenodd" clip-rule="evenodd" d="M468.378 107.878L469.879 107.69V109.044C469.917 109.494 469.917 109.947 469.879 110.398H468.359C468.397 109.991 468.397 109.582 468.359 109.176L468.378 107.878Z" fill="white"/>
<path fill-rule="evenodd" clip-rule="evenodd" d="M467.63 104.851L467.18 103.705L468.55 103.047L469.056 104.325C469.242 104.741 469.38 105.176 469.469 105.622L468.005 106.017C467.929 105.614 467.803 105.223 467.63 104.851Z" fill="white"/>
<path fill-rule="evenodd" clip-rule="evenodd" d="M464.44 125.513C463.952 126.228 463.502 126.98 462.976 127.657L461.719 126.679C462.244 126.021 462.676 125.288 463.145 124.592L464.44 125.513Z" fill="white"/>
<path fill-rule="evenodd" clip-rule="evenodd" d="M466.805 121.49L465.529 123.765L464.234 122.994L465.454 120.794L466.805 121.49Z" fill="white"/>
<path fill-rule="evenodd" clip-rule="evenodd" d="M467.178 116.677L468.623 117.166L468.191 118.407L467.666 119.61L466.277 118.99L466.784 117.861L467.178 116.677Z" fill="white"/>
<path fill-rule="evenodd" clip-rule="evenodd" d="M455.562 136.211L453.723 138.016L452.672 136.907L454.492 135.121L455.562 136.211Z" fill="white"/>
<path fill-rule="evenodd" clip-rule="evenodd" d="M458.755 132.864L456.991 134.744L455.902 133.692L457.61 131.849L458.755 132.864Z" fill="white"/>
<path fill-rule="evenodd" clip-rule="evenodd" d="M461.718 129.311C461.211 130.025 460.63 130.646 460.085 131.323L458.922 130.326C459.447 129.668 460.029 129.067 460.517 128.446L461.718 129.311Z" fill="white"/>
<path fill-rule="evenodd" clip-rule="evenodd" d="M444.266 144.164L445.204 145.348L443.177 146.927L442.258 145.705L444.266 144.164Z" fill="white"/>
<path fill-rule="evenodd" clip-rule="evenodd" d="M448.771 142.434C448.133 142.998 447.458 143.543 446.801 144.07L445.844 142.885C446.501 142.359 447.157 141.832 447.72 141.268L448.771 142.434Z" fill="white"/>
<path fill-rule="evenodd" clip-rule="evenodd" d="M452.202 139.407C451.583 139.99 450.964 140.573 450.326 141.118L449.312 139.971C449.969 139.426 450.589 138.862 451.189 138.279L452.202 139.407Z" fill="white"/>
<path fill-rule="evenodd" clip-rule="evenodd" d="M433.214 152.192L434.059 153.451L431.938 154.88L431.094 153.602L433.214 152.192Z" fill="white"/>
<path fill-rule="evenodd" clip-rule="evenodd" d="M436.947 149.616L437.829 150.857L435.727 152.323L434.883 151.063L436.947 149.616Z" fill="white"/>
<path fill-rule="evenodd" clip-rule="evenodd" d="M440.624 146.946L441.543 148.168L439.479 149.672L438.578 148.45L440.624 146.946Z" fill="white"/>
<path fill-rule="evenodd" clip-rule="evenodd" d="M421.653 159.505L422.422 160.821L420.226 162.099L419.457 160.783L421.653 159.505Z" fill="white"/>
<path fill-rule="evenodd" clip-rule="evenodd" d="M425.537 157.136L426.344 158.433L424.167 159.768L423.379 158.452L425.537 157.136Z" fill="white"/>
<path fill-rule="evenodd" clip-rule="evenodd" d="M429.385 154.711L430.192 155.989L428.052 157.362L427.227 156.083L429.385 154.711Z" fill="white"/>
<path fill-rule="evenodd" clip-rule="evenodd" d="M409.718 166.217L410.431 167.57L408.179 168.755L407.484 167.401L409.718 166.217Z" fill="white"/>
<path fill-rule="evenodd" clip-rule="evenodd" d="M413.733 164.036L414.465 165.371L412.213 166.593L411.5 165.258L413.733 164.036Z" fill="white"/>
<path fill-rule="evenodd" clip-rule="evenodd" d="M417.676 161.817L418.445 163.134L416.212 164.393L415.48 163.058L417.676 161.817Z" fill="white"/>
<path fill-rule="evenodd" clip-rule="evenodd" d="M395.211 173.455L397.5 172.383L398.157 173.756L395.849 174.846L395.211 173.455Z" fill="white"/>
<path fill-rule="evenodd" clip-rule="evenodd" d="M401.61 170.391L402.285 171.763L399.996 172.891L399.32 171.519L401.61 170.391Z" fill="white"/>
<path fill-rule="evenodd" clip-rule="evenodd" d="M405.665 168.341L406.36 169.695L404.089 170.861L403.395 169.507L405.665 168.341Z" fill="white"/>
<path d="M118.02 119.704L125.113 123.577L118.02 127.469L114.154 134.575L110.269 127.469L103.176 123.577L110.269 119.704L114.154 112.597L118.02 119.704Z" fill="white"/>
<path d="M135.208 132.319L139.318 134.575L135.208 136.831L132.956 140.93L130.723 136.831L126.613 134.575L130.723 132.319L132.956 128.202L135.208 132.319Z" fill="white"/>
<path d="M199.932 105.453H196.273C195.852 105.469 195.438 105.342 195.097 105.093C194.757 104.844 194.51 104.487 194.397 104.081C194.136 103.299 193.816 102.538 193.439 101.806C193.234 101.439 193.158 101.013 193.222 100.597C193.287 100.181 193.489 99.7992 193.796 99.512L196.386 96.9175C196.582 96.7412 196.74 96.5253 196.847 96.284C196.955 96.0426 197.01 95.7812 197.01 95.5169C197.01 95.2525 196.955 94.9911 196.847 94.7498C196.74 94.5085 196.582 94.2926 196.386 94.1162L194.809 92.537C194.437 92.1684 193.935 91.9617 193.411 91.9617C192.888 91.9617 192.386 92.1684 192.013 92.537L189.424 95.1315C189.137 95.4391 188.755 95.6416 188.34 95.7063C187.925 95.7711 187.501 95.6945 187.134 95.4887C186.407 95.1065 185.647 94.7919 184.863 94.5486C184.461 94.4314 184.109 94.1826 183.864 93.8419C183.62 93.5011 183.496 93.0881 183.512 92.6686V88.9084C183.488 88.3981 183.267 87.917 182.896 87.5664C182.525 87.2158 182.033 87.0229 181.523 87.0284H179.309C178.8 87.0276 178.31 87.222 177.94 87.5716C177.57 87.9213 177.348 88.3997 177.319 88.9084V92.6686C177.336 93.0881 177.212 93.5011 176.967 93.8419C176.722 94.1826 176.371 94.4314 175.968 94.5486C175.184 94.7919 174.424 95.1065 173.698 95.4887C173.331 95.6945 172.906 95.7711 172.491 95.7063C172.076 95.6416 171.695 95.4391 171.408 95.1315L168.818 92.537C168.446 92.1684 167.944 91.9617 167.42 91.9617C166.897 91.9617 166.395 92.1684 166.022 92.537L164.446 94.1162C164.078 94.4892 163.872 94.9925 163.872 95.5169C163.872 96.0413 164.078 96.5445 164.446 96.9175L167.036 99.512C167.343 99.7992 167.545 100.181 167.61 100.597C167.674 101.013 167.598 101.439 167.392 101.806C167.014 102.535 166.7 103.296 166.454 104.081C166.327 104.479 166.076 104.827 165.739 105.073C165.402 105.32 164.995 105.453 164.577 105.453H160.918C160.663 105.453 160.412 105.504 160.178 105.605C159.943 105.705 159.732 105.852 159.557 106.037C159.381 106.221 159.245 106.44 159.156 106.679C159.068 106.918 159.029 107.172 159.041 107.427V109.758C159.041 110.257 159.239 110.735 159.591 111.088C159.943 111.44 160.42 111.638 160.918 111.638H164.577C164.993 111.637 165.398 111.767 165.735 112.01C166.072 112.254 166.323 112.597 166.454 112.992C166.7 113.782 167.014 114.55 167.392 115.286C167.582 115.657 167.65 116.079 167.586 116.491C167.522 116.903 167.329 117.284 167.036 117.579L164.446 120.174C164.078 120.547 163.872 121.05 163.872 121.575C163.872 122.099 164.078 122.602 164.446 122.975L166.022 124.555C166.395 124.923 166.897 125.13 167.42 125.13C167.944 125.13 168.446 124.923 168.818 124.555L171.408 121.96C171.692 121.649 172.073 121.443 172.488 121.375C172.903 121.307 173.329 121.38 173.698 121.584C174.424 121.972 175.184 122.293 175.968 122.543C176.371 122.66 176.722 122.909 176.967 123.25C177.212 123.59 177.336 124.003 177.319 124.423V128.07C177.319 128.599 177.529 129.106 177.902 129.479C178.275 129.853 178.781 130.063 179.309 130.063H181.523C181.785 130.066 182.045 130.016 182.287 129.917C182.53 129.817 182.75 129.671 182.935 129.485C183.12 129.299 183.267 129.079 183.366 128.836C183.465 128.593 183.515 128.333 183.512 128.07V124.31C183.496 123.891 183.62 123.478 183.864 123.137C184.109 122.796 184.461 122.547 184.863 122.43C185.645 122.172 186.404 121.852 187.134 121.471C187.503 121.268 187.929 121.194 188.344 121.262C188.759 121.33 189.139 121.536 189.424 121.847L192.013 124.442C192.386 124.81 192.888 125.017 193.411 125.017C193.935 125.017 194.437 124.81 194.809 124.442L196.386 122.862C196.582 122.686 196.74 122.47 196.847 122.229C196.955 121.988 197.01 121.726 197.01 121.462C197.01 121.197 196.955 120.936 196.847 120.695C196.74 120.453 196.582 120.238 196.386 120.061L193.796 117.467C193.502 117.171 193.31 116.79 193.246 116.378C193.182 115.966 193.249 115.544 193.439 115.173C193.816 114.434 194.136 113.667 194.397 112.879C194.514 112.476 194.762 112.124 195.102 111.879C195.442 111.633 195.854 111.509 196.273 111.526H199.932C200.441 111.526 200.931 111.332 201.301 110.982C201.671 110.633 201.893 110.154 201.922 109.646V107.408C201.912 106.886 201.698 106.389 201.326 106.023C200.954 105.658 200.454 105.453 199.932 105.453ZM187.903 110.04C187.632 111.391 187 112.642 186.075 113.661C185.15 114.679 183.966 115.428 182.65 115.826C181.334 116.224 179.935 116.257 178.602 115.922C177.268 115.586 176.051 114.895 175.079 113.921C174.107 112.947 173.416 111.727 173.082 110.391C172.747 109.056 172.78 107.654 173.177 106.335C173.575 105.017 174.322 103.831 175.339 102.904C176.356 101.978 177.604 101.344 178.952 101.072C180.178 100.839 181.443 100.909 182.635 101.277C183.828 101.646 184.913 102.3 185.796 103.184C186.678 104.068 187.331 105.155 187.699 106.35C188.066 107.545 188.136 108.812 187.903 110.04Z" fill="#7191EE"/>
<path d="M508.633 290.828C510.359 294.024 514.075 291.787 514.075 291.787C514.075 291.787 513.869 290.734 512.198 289.907C510.978 289.465 509.637 289.505 508.445 290.019H506.4H505.03C510.885 287.951 508.126 281.014 508.126 281.014C507.347 281.171 506.609 281.492 505.962 281.955C505.315 282.419 504.774 283.014 504.373 283.702C502.815 285.789 503.435 289.342 503.604 290.207C501.303 290.535 499.045 291.109 496.867 291.918C497.148 291.636 497.43 291.335 497.711 290.997C499.944 288.308 498.968 283.232 498.968 283.232C490.955 284.247 492.55 291.787 493.038 293.516C490.506 294.749 488.082 296.195 485.795 297.84C486.533 296.783 487.068 295.597 487.371 294.343C488.384 290.583 485.007 285.883 485.007 285.883C477.162 290.828 482.792 297.953 483.899 299.232C482.492 300.322 481.216 301.431 480.146 302.484C479.076 303.537 477.688 304.797 476.618 305.906C477.175 304.268 477.316 302.517 477.031 300.811C476.468 296.562 471.082 293.291 471.082 293.291C465.452 301.394 473.541 306.207 475.455 307.184C473.37 309.401 471.445 311.764 469.693 314.253L470.407 314.742C471.566 313.038 472.819 311.4 474.16 309.835C477.2 319.442 487.615 314.554 487.615 314.554C487.615 314.554 487.352 311.922 483.486 309.365C481.009 307.711 477.294 308.143 475.286 308.538C476.979 306.646 478.77 304.845 480.653 303.142C481.328 302.522 482.06 301.883 482.83 301.262C485.513 310.343 495.196 305.793 495.196 305.793C495.196 305.793 494.952 303.405 491.443 301.055C489.162 299.902 486.538 299.628 484.068 300.284C486.424 298.401 488.935 296.721 491.575 295.265C493.245 303.838 502.346 300.378 502.346 300.378C502.174 299.454 501.81 298.575 501.276 297.801C500.743 297.027 500.052 296.374 499.25 295.885C497.233 294.693 494.851 294.279 492.55 294.719C495.641 293.132 498.938 291.986 502.346 291.317C502.196 299.081 510.603 297.596 510.603 297.596C510.603 296.793 510.436 295.999 510.113 295.264C509.79 294.53 509.318 293.87 508.727 293.328C507.057 291.448 503.622 291.279 502.609 291.26C503.851 291.048 505.104 290.904 506.362 290.828H508.633Z" fill="#FBB03B"/>
<path d="M440.68 337.04C440.68 337.04 423.246 297.558 435.857 260.953C448.468 224.349 479.019 213.595 479.019 213.595C479.019 213.595 460.928 234.576 471.512 267.308C481.439 298.254 462.505 337.04 462.505 337.04H440.68Z" fill="#85A0EE"/>
<path d="M446.855 337.04C446.855 337.04 442.389 256.817 461.268 235.704C444.097 262.307 451.247 337.04 451.247 337.04H446.855Z" fill="#8888BA"/>
<path d="M476.731 337.04H458.152C459.851 329.444 463.317 322.358 468.267 316.359C470.543 313.721 473.37 311.615 476.548 310.192C479.726 308.769 483.177 308.063 486.658 308.124C482.801 313.047 480.553 319.041 480.221 325.289C479.786 329.387 478.603 333.37 476.731 337.04Z" fill="#1F3B88"/>
<path d="M433.68 293.422C447.248 311.151 450.288 334.295 450.57 337.04H424.185C417.504 330.873 409.303 320.871 409.172 308.839C409.059 287.368 399.113 274.64 399.113 274.64C405.896 275.047 412.506 276.94 418.479 280.185C424.451 283.431 429.64 287.949 433.68 293.422Z" fill="#FBB03B"/>
<path d="M464.193 337.04H462.805C465.451 330.948 472.188 316.679 478.568 313.783C472.375 317.938 466.652 330.854 464.193 337.04Z" fill="#5A5BAE"/>
<path d="M442.276 337.04H439.536C436.328 326.399 426.494 296.731 414.09 286.955C426.907 294.005 438.861 326.981 442.276 337.04Z" fill="#FFD648"/>
<path d="M408.948 340.18H487.652V337.059H408.948V340.18Z" fill="#FBB03B"/>
<path d="M383.426 118.256L376.332 122.148L383.426 126.021L387.291 133.128L391.176 126.021L398.269 122.148L391.176 118.256L387.291 111.15L383.426 118.256Z" fill="white"/>
<path d="M366.236 130.872L362.145 133.128L366.236 135.384L368.487 139.482L370.739 135.384L374.83 133.128L370.739 130.872L368.487 126.773L366.236 130.872Z" fill="white"/>
<path d="M69.2648 286.034C67.9442 284.612 66.8206 283.018 65.9245 281.296C65.0052 278.718 65.0052 275.902 65.9245 273.324C66.7314 270.73 67.9512 268.286 68.6455 265.672C69.4842 262.432 69.5155 259.035 68.7367 255.78C67.958 252.525 66.3929 249.511 64.1792 247.003C63.1248 245.973 62.1464 244.867 61.2517 243.694C59.5735 240.66 59.0723 237.112 59.8443 233.73C60.6158 230.386 61.0371 226.971 61.1016 223.54C60.9684 221.47 60.4155 219.449 59.4766 217.6C58.5377 215.751 57.2325 214.113 55.6407 212.786C52.3486 210.356 48.337 209.105 44.2498 209.233H43.9871C39.9086 209.061 35.8907 210.266 32.5773 212.654C30.962 213.96 29.6295 215.582 28.6615 217.422C27.6935 219.261 27.1103 221.279 26.9475 223.352C26.975 226.786 27.3586 230.207 28.0923 233.561C28.8182 236.951 28.2774 240.49 26.5722 243.506C25.669 244.671 24.6778 245.765 23.6072 246.778C21.3505 249.251 19.7354 252.242 18.9042 255.488C18.073 258.734 18.0512 262.134 18.8406 265.39C19.5162 268.004 20.7172 270.485 21.4679 273.08C22.3966 275.656 22.3966 278.476 21.4679 281.051C20.5466 282.756 19.4114 284.336 18.09 285.752C13.5674 291.392 11.6345 299.72 15.5378 305.755C17.2071 308.099 19.3488 310.065 21.8244 311.527C25.5501 314.003 29.6873 315.792 34.0411 316.81C35.928 317.374 37.9213 317.484 39.8585 317.13C41.0536 316.915 42.2729 316.871 43.4804 316.998C44.6896 316.884 45.9089 316.941 47.1022 317.168C49.0342 317.537 51.0253 317.453 52.9197 316.923C57.2842 315.952 61.4405 314.207 65.1926 311.772C67.678 310.35 69.8437 308.43 71.5543 306.132C75.5514 300.078 73.7124 291.674 69.2648 286.034Z" fill="#FFD648"/>
<path d="M64.312 280.205L45.546 300.341L44.8705 260.747L58.9449 241.946L44.8142 257.099L44.4013 233.053L54.5725 219.498L44.3638 230.459L44.0823 213.538L43.7445 235.234L33.9862 224.518L43.707 237.791L43.3129 262.232L29.3698 247.003L43.2378 265.954L42.6185 306.038L23.5898 285.112L42.581 311.038L42.4872 316.942H45.8463L45.6399 305.097L64.312 280.205Z" fill="#FBB03B"/>
<path d="M45.863 316.942H42.5039V323.409H45.863V316.942Z" fill="#97BBD3"/>
<path d="M29.293 323.503H59.0933L53.5198 347.098H34.9603L29.293 323.503Z" fill="#1F3B88"/>
<path d="M59.0933 321.698H29.293V323.485H59.0933V321.698Z" fill="#9B9AD3"/>
<path d="M217.76 291.204C217.912 294.77 217.429 298.335 216.334 301.732C215.377 304.139 214.101 305.323 212.468 305.323H196.892V337.096C196.9 337.964 196.609 338.807 196.067 339.484C195.294 340.306 194.306 340.893 193.214 341.176C191.497 341.699 189.73 342.04 187.941 342.191C185.764 342.417 182.968 342.53 179.534 342.53C176.1 342.53 173.548 342.417 171.333 342.191C169.543 342.051 167.774 341.71 166.06 341.176C165.009 340.888 164.063 340.3 163.339 339.484C162.84 338.789 162.577 337.952 162.588 337.096V305.285H95.5186C94.3689 305.306 93.223 305.148 92.122 304.815C91.0498 304.432 90.1595 303.661 89.6261 302.653C88.8172 301.136 88.3075 299.476 88.1248 297.765C87.7684 294.947 87.6116 292.107 87.6557 289.267C87.6557 286.372 87.6557 283.871 87.8621 281.747C87.9703 279.817 88.1959 277.896 88.5377 275.994C88.8385 274.327 89.2908 272.691 89.8888 271.106C90.5324 269.432 91.2782 267.8 92.122 266.218L146.543 169.939C147.096 169.036 147.898 168.311 148.852 167.852C150.286 167.138 151.816 166.631 153.393 166.348C155.834 165.879 158.304 165.584 160.787 165.465C163.752 165.296 167.374 165.202 171.615 165.202C176.231 165.202 180.153 165.314 183.418 165.54C186.04 165.677 188.645 166.035 191.206 166.612C192.736 166.951 194.184 167.59 195.466 168.492C195.879 168.784 196.218 169.17 196.456 169.617C196.694 170.064 196.824 170.561 196.836 171.067V276.84H212.412C213.857 276.84 215.095 277.949 216.165 280.168C217.425 283.703 217.967 287.455 217.76 291.204ZM162.588 196.035H162.326L116.105 276.878H162.588V196.035Z" fill="#203B85"/>
<path d="M441.076 289.042C441.235 292.602 440.752 296.163 439.65 299.551C438.711 301.958 437.416 303.161 435.896 303.161H420.302V334.934C420.32 335.794 420.034 336.633 419.495 337.303C418.719 338.122 417.732 338.708 416.642 338.995C414.925 339.518 413.158 339.859 411.369 340.01C409.192 340.236 406.396 340.349 402.962 340.349C399.528 340.349 396.976 340.236 394.761 340.01C392.965 339.868 391.191 339.527 389.469 338.995C388.371 338.722 387.387 338.11 386.654 337.247C386.143 336.565 385.879 335.73 385.904 334.878V303.105H318.89C317.746 303.118 316.606 302.953 315.513 302.616C314.432 302.24 313.533 301.467 312.998 300.454C312.202 298.932 311.699 297.274 311.515 295.566C311.159 292.754 311.002 289.92 311.046 287.086C311.046 284.191 311.046 281.672 311.234 279.566C311.361 277.632 311.586 275.705 311.91 273.794C312.21 272.125 312.669 270.488 313.279 268.906C313.923 267.232 314.669 265.6 315.513 264.018L369.934 167.759C370.48 166.844 371.283 166.112 372.242 165.653C373.68 164.946 375.208 164.44 376.784 164.149C379.219 163.689 381.683 163.394 384.159 163.265C387.142 163.096 390.764 163.002 395.005 163.002C399.603 163.002 403.544 163.115 406.79 163.34C409.42 163.471 412.032 163.836 414.597 164.431C416.129 164.762 417.579 165.401 418.857 166.311C419.266 166.606 419.601 166.992 419.836 167.439C420.07 167.886 420.198 168.382 420.208 168.887V274.64H435.803C437.241 274.64 438.492 275.75 439.556 277.968C440.801 281.519 441.318 285.286 441.076 289.042ZM385.923 193.854H385.66L339.439 274.697H385.923V193.854Z" fill="#203B85"/>
<path d="M305.492 238.562C306.436 237.602 307.171 236.456 307.65 235.197C307.951 233.147 309.639 231.549 309.433 233.222C309.227 234.896 309.433 234.257 310.146 233.674C310.649 233.328 311.061 232.866 311.346 232.325C311.63 231.784 311.779 231.183 311.779 230.572C311.891 228.691 313.111 229.481 312.68 232.903C312.248 236.325 310.803 236.494 310.034 237.547C309.264 238.599 307.256 240.874 307.256 240.874L305.492 238.562Z" fill="#F6C5AE"/>
<path d="M245.91 231.587C245.637 230.266 245.637 228.903 245.91 227.582C246.736 225.702 246.154 223.427 245.441 224.969C244.728 226.511 244.878 225.834 244.597 224.969C244.351 224.41 244.245 223.8 244.287 223.19C244.33 222.581 244.52 221.991 244.841 221.472C245.723 219.836 244.278 219.836 242.852 222.976C241.425 226.116 242.57 227.018 242.664 228.315C242.758 229.613 243.246 232.602 243.246 232.602L245.91 231.587Z" fill="#F6C5AE"/>
<path d="M211.362 332.434L207.909 333.9C207.815 333.543 206.445 329.144 206.445 329.144L209.955 327.809L211.362 332.434Z" fill="#F6C5AE"/>
<path d="M209.54 334.709C209.54 334.709 207.513 346.591 207.476 346.835C207.438 347.079 207.476 347.493 207.476 348.076C207.519 348.501 207.416 348.929 207.184 349.287C206.952 349.646 206.604 349.915 206.199 350.05C206.005 350.115 205.803 350.153 205.599 350.163C205.43 350.163 199.5 330.29 199.5 330.29C199.5 330.29 205.73 327.903 206.312 328.862C206.894 329.82 207.194 333.675 209.54 334.709Z" fill="#393768"/>
<path d="M208.378 341.514L206.407 341.101L206.238 341.834L208.246 342.266L208.378 341.514Z" fill="white"/>
<path d="M208.151 342.83L206.256 342.436L206.105 343.188L208.02 343.582L208.151 342.83Z" fill="white"/>
<path d="M207.927 344.09L206.107 343.714L205.957 344.447L207.796 344.842L207.927 344.09Z" fill="white"/>
<path d="M295.825 353.246L296.557 356.799L291.753 357.269L291.152 353.697L295.825 353.246Z" fill="#F6C5AE"/>
<path d="M297.63 355.408L308.777 359.676C309.167 359.756 309.562 359.813 309.959 359.845C310.368 359.895 310.75 360.078 311.046 360.367C311.341 360.656 311.533 361.034 311.591 361.443C311.629 361.636 311.629 361.833 311.591 362.026C311.591 362.176 291.531 363.906 291.531 363.906C291.531 363.906 290.442 357.551 291.531 357.194C292.619 356.837 296.203 357.42 297.63 355.408Z" fill="#393768"/>
<path d="M303.879 357.815L303.109 359.601L303.785 359.901L304.573 358.078L303.879 357.815Z" fill="white"/>
<path d="M305.099 358.285L304.367 359.995L305.043 360.277L305.793 358.548L305.099 358.285Z" fill="white"/>
<path d="M306.24 358.717L305.527 360.371L306.222 360.672L306.935 358.98L306.24 358.717Z" fill="white"/>
<path d="M269.515 256.648H276.684V247.417H269.515V256.648Z" fill="#F6C5AE"/>
<path d="M278.338 253.396L289.879 250.669L305.83 238.054L308.533 240.329L296.429 255.088L280.14 264.338L271.601 291.354L246.868 289.681L256.007 261.292L246.624 253.377L242.57 231.512L245.911 231.117L252.235 249.034L267.66 253.828H268.937C268.937 253.828 272.99 257.137 275.317 256.197C275.817 255.948 276.225 255.546 276.481 255.049C276.738 254.552 276.829 253.986 276.743 253.433L278.338 253.396Z" fill="#FBB03B"/>
<path d="M271.806 291.411L289.352 308.726L298.154 353.284L290.572 354.13L279.5 317.261L259.402 303.781L243.751 323.804L210.854 333.148L208.434 326.192L236.339 313.52L247.035 289.342" fill="#1B1F34"/>
<path d="M283.834 238.148C284.156 237.389 284.302 236.568 284.263 235.744C284.224 234.921 284.001 234.117 283.609 233.392C283.192 232.661 282.592 232.053 281.868 231.627C281.143 231.202 280.32 230.974 279.48 230.966C279.097 230.953 278.716 231.037 278.373 231.211C278.122 231.387 277.895 231.596 277.698 231.831C276.728 232.889 275.536 233.717 274.207 234.256C272.517 234.819 270.793 235.278 269.047 235.629C268.041 235.831 267.126 236.352 266.438 237.114C266.102 237.674 265.893 238.301 265.825 238.951C265.757 239.6 265.832 240.257 266.044 240.874C266.307 242.134 266.307 243.394 266.551 244.634C266.72 245.593 266.682 245.631 266.851 246.797C267.009 247.777 267.36 248.716 267.883 249.56C268.165 250.087 268.315 252.042 268.915 252.098C269.516 252.155 269.215 250.594 269.478 250.218C269.713 249.88 269.873 249.496 269.947 249.09C270.124 247.089 270.767 245.157 271.824 243.45C272.595 242.592 273.66 242.055 274.808 241.946C276.046 241.833 277.153 242.642 278.336 242.491C279.536 242.269 280.663 241.758 281.621 241.001C282.579 240.245 283.339 239.265 283.834 238.148Z" fill="#393768"/>
<path d="M279.951 242.04C279.951 242.04 280.327 250.763 277.643 252.136C274.96 253.508 271.357 251.29 270.137 250.35C269.259 249.548 268.584 248.55 268.166 247.436C267.668 246.709 267.358 245.869 267.266 244.992C267.266 243.939 267.266 242.585 268.335 243.262C269.912 244.315 269.18 243.525 269.18 243.525C269.016 243.118 268.985 242.668 269.093 242.242C269.201 241.816 269.442 241.436 269.78 241.156C270.944 239.878 279.914 237.283 279.951 242.04Z" fill="#F6C5AE"/>
<path d="M346.946 145.592C347.062 158.344 345.931 171.077 343.568 183.607C341.717 193.853 337.968 203.66 332.515 212.523C327.622 220.297 320.749 226.624 312.605 230.854C304.423 235.102 294.414 237.233 282.579 237.246C270.744 237.258 260.804 235.197 252.76 231.06C244.949 227.033 238.441 220.865 233.994 213.275C229.055 204.519 225.79 194.917 224.367 184.961C222.39 172.388 221.436 159.674 221.515 146.946C221.408 134.216 222.565 121.507 224.967 109.006C226.856 98.7367 230.63 88.907 236.096 80.0157C240.984 72.2376 247.858 65.9091 256.006 61.685C264.288 57.3859 274.278 55.2364 285.976 55.2364C297.986 55.2364 307.944 57.2919 315.851 61.403C323.66 65.4335 330.167 71.6008 334.617 79.1884C339.588 87.9568 342.855 97.5899 344.244 107.577C346.151 120.157 347.055 132.869 346.946 145.592ZM311.047 147.36C311.047 139.025 310.822 131.667 310.371 125.288C310.008 119.71 309.306 114.16 308.27 108.668C307.491 104.575 306.309 100.57 304.742 96.7107C303.564 93.8057 301.838 91.1563 299.656 88.9084C297.758 87.0104 295.435 85.5925 292.882 84.7723C290.161 83.9231 287.324 83.5106 284.474 83.5502C279.791 83.3728 275.179 84.7328 271.338 87.4232C267.55 90.433 264.687 94.4542 263.081 99.0232C260.795 105.231 259.356 111.719 258.802 118.313C257.934 127.241 257.527 136.208 257.583 145.179C257.467 155.546 257.968 165.911 259.084 176.219C259.696 182.927 261.27 189.513 263.757 195.771C265.331 199.955 268.206 203.521 271.957 205.943C275.64 207.978 279.801 208.984 284.005 208.857C287.214 208.916 290.402 208.341 293.388 207.165C296.05 206.001 298.421 204.261 300.332 202.07C302.517 199.545 304.233 196.647 305.398 193.515C306.889 189.653 308.001 185.655 308.72 181.577C309.643 176.507 310.232 171.383 310.484 166.236C310.859 160.545 311.047 154.253 311.047 147.36Z" fill="#203B85"/>
<path d="M106.14 296.449C106.14 296.449 94.3362 314.46 96.0439 318.653C97.7516 322.845 104.282 329.219 104.282 329.219L109.18 327.339C109.18 327.339 104.751 320.006 105.164 318.446C105.577 316.885 109.837 308.463 109.837 308.463L106.14 296.449Z" fill="#5A5BAE"/>
<path d="M136.39 296.374C136.39 296.374 147.893 314.329 146.186 318.502C144.478 322.676 138.229 328.937 138.229 328.937L133.35 327.057C133.35 327.057 137.234 318.86 137.459 318.108C137.91 316.604 132.73 308.312 132.73 308.312L136.39 296.374Z" fill="#5A5BAE"/>
<path d="M136.559 296.694C135.696 294.813 124.436 292.501 124.436 292.501C123.81 293.296 123.119 294.038 122.372 294.72C121.895 296.022 121.525 297.361 121.265 298.724C120.99 297.361 120.607 296.022 120.12 294.72C119.381 294.145 118.685 293.516 118.037 292.839C118.037 292.839 106.778 295.001 105.933 296.788C105.089 298.574 107.247 335.893 108.467 336.626C109.686 337.359 115.166 338.769 116.892 339.71C118.334 340.201 119.898 340.201 121.34 339.71C122.687 339.649 123.989 339.206 125.093 338.431C126.82 337.491 132.919 336.1 134.138 335.348C135.358 334.596 137.422 298.461 136.559 296.694Z" fill="#5A5BAE"/>
<path d="M101.111 327.583C101.111 327.583 94.9563 324.97 91.8599 326.305C88.7635 327.639 86.4928 333.017 89.683 336.25C92.8732 339.484 119.127 349.411 121.416 350.05C124.047 350.53 126.719 350.744 129.392 350.689L130.612 345.839C130.612 345.839 110.682 331.776 101.111 327.583Z" fill="#1B1F34"/>
<path d="M139.731 327.583C139.731 327.583 145.905 324.97 148.983 326.305C152.061 327.639 154.35 333.017 151.16 336.25C147.97 339.484 121.716 349.411 119.445 350.05C116.815 350.53 114.143 350.744 111.47 350.689L110.25 345.839C110.25 345.839 130.179 331.776 139.731 327.583Z" fill="#1B1F34"/>
<path d="M101.41 342.887C100.814 342.393 100.093 342.074 99.3274 341.966C98.3891 341.966 97.751 343.094 97.2631 344.711C96.7752 346.327 96.5125 351.31 97.1318 351.798C97.751 352.287 100.04 351.968 100.04 351.968L101.41 342.887Z" fill="#393768"/>
<path d="M111.337 350.2C108.737 350.047 106.127 350.161 103.549 350.539C102.142 351.122 99.9464 352.776 99.421 351.573C98.8955 350.37 99.421 341.966 101.448 342.943C102.555 343.47 104.263 344.184 105.783 344.823C107.225 345.327 108.726 345.643 110.249 345.763L111.337 350.2Z" fill="#9B9AD3"/>
<path d="M139.301 342.887C139.892 342.396 140.606 342.077 141.365 341.966C142.322 341.966 142.941 343.094 143.448 344.711C143.955 346.327 144.18 351.31 143.561 351.798C142.941 352.287 140.671 351.968 140.671 351.968L139.301 342.887Z" fill="#393768"/>
<path d="M129.41 350.2C132.005 350.047 134.608 350.161 137.179 350.539C138.587 351.122 140.782 352.776 141.327 351.573C141.871 350.37 141.327 341.966 139.3 342.943C138.174 343.47 136.485 344.184 134.946 344.823C133.511 345.329 132.016 345.645 130.499 345.763L129.41 350.2Z" fill="#9B9AD3"/>
<path d="M138.136 335.367H102.349C102.004 335.367 101.671 335.235 101.419 334.997C101.168 334.759 101.017 334.434 100.998 334.088L99.722 314.686C99.7091 314.5 99.7345 314.314 99.7966 314.139C99.8587 313.964 99.9562 313.803 100.083 313.667C100.21 313.531 100.363 313.423 100.533 313.349C100.704 313.276 100.888 313.238 101.073 313.238H139.356C139.541 313.238 139.725 313.276 139.895 313.349C140.066 313.423 140.219 313.531 140.346 313.667C140.473 313.803 140.57 313.964 140.632 314.139C140.694 314.314 140.72 314.5 140.707 314.686L139.487 334.145C139.454 334.48 139.298 334.792 139.048 335.018C138.798 335.244 138.473 335.368 138.136 335.367Z" fill="#F2F2F2"/>
<path d="M129.222 287.274C129.215 287.164 129.184 287.057 129.133 286.96C129.081 286.862 129.009 286.777 128.921 286.71H128.677C128.295 286.79 127.948 286.987 127.683 287.274V286.616C127.833 283.289 121.302 283.477 121.246 283.477C121.19 283.477 114.678 283.289 114.809 286.616C114.809 286.616 114.809 286.861 114.809 287.274C114.539 286.984 114.185 286.787 113.796 286.71H113.571C113.364 286.71 113.308 287.068 113.271 287.274C113.139 288.002 113.139 288.747 113.271 289.474C113.417 290.195 113.784 290.852 114.321 291.354C114.511 291.53 114.735 291.664 114.978 291.749C115.018 292.466 115.124 293.177 115.297 293.873C115.785 295.283 118.656 298.498 121.209 298.592C123.761 298.592 126.651 295.283 127.139 293.873C127.303 293.176 127.404 292.465 127.439 291.749C127.691 291.67 127.922 291.535 128.114 291.354C128.64 290.844 129.006 290.19 129.165 289.474C129.316 288.75 129.335 288.005 129.222 287.274Z" fill="#F27677"/>
<path d="M128.98 286.88C128.98 286.278 129.111 285.526 129.186 285C129.284 284.377 129.284 283.742 129.186 283.119C129.089 282.697 128.945 282.287 128.754 281.897C128.399 280.968 127.863 280.118 127.178 279.397C126.038 278.484 124.639 277.957 123.181 277.893C120.614 277.832 118.055 277.58 115.524 277.141C114.821 276.895 114.18 276.497 113.648 275.975C113.291 275.674 112.878 275.336 112.447 275.468C112.263 275.554 112.11 275.693 112.006 275.867C111.903 276.041 111.853 276.243 111.865 276.445C111.977 277.401 112.197 278.341 112.522 279.247C112.634 279.773 112.634 280.337 112.747 280.863C112.782 281.139 112.878 281.403 113.027 281.637C113.176 281.871 113.375 282.069 113.61 282.217L112.559 281.672C112.671 282.414 112.975 283.115 113.441 283.702C113.573 283.853 113.685 284.135 113.441 284.229H113.31C113.31 284.229 113.31 284.398 113.31 284.473C113.69 285.323 114.116 286.151 114.586 286.955C114.736 287.199 114.586 287.406 114.924 287.387C115.284 287.377 115.626 287.229 115.881 286.974C116.115 286.521 116.439 286.121 116.833 285.798C117.226 285.475 117.681 285.235 118.17 285.094C118.637 285.028 119.111 285.028 119.578 285.094C120.337 285.206 121.108 285.206 121.867 285.094C122.437 284.948 123.025 284.884 123.612 284.906C124.223 285.041 124.799 285.303 125.301 285.676C125.952 286.106 126.578 286.57 127.178 287.068C127.267 287.16 127.376 287.231 127.497 287.274C127.634 287.282 127.77 287.259 127.897 287.207C128.023 287.155 128.137 287.075 128.229 286.974C128.435 286.767 128.904 286.598 128.98 286.88Z" fill="black"/>
</g>
<defs>
<linearGradient id="paint0_linear_883_1910" x1="262.309" y1="375.844" x2="262.309" y2="337.115" gradientUnits="userSpaceOnUse">
<stop stop-color="#F0F0FA"/>
<stop offset="1" stop-color="#DDDCEE"/>
</linearGradient>
<clipPath id="clip0_883_1910">
<rect width="514" height="364" fill="white"/>
</clipPath>
</defs>
</svg>
