<svg width="94" height="94" viewBox="0 0 94 94" fill="none" xmlns="http://www.w3.org/2000/svg">
<path d="M16.685 43.1617V62.6275C16.685 69.7558 16.685 69.7558 23.4217 74.2992L41.9475 84.9917C44.7283 86.5975 49.2717 86.5975 52.0525 84.9917L70.5783 74.2992C77.315 69.7558 77.315 69.7558 77.315 62.6275V43.1617C77.315 36.0333 77.315 36.0333 70.5783 31.49L52.0525 20.7975C49.2717 19.1917 44.7283 19.1917 41.9475 20.7975L23.4217 31.49C16.685 36.0333 16.685 36.0333 16.685 43.1617Z" stroke="#263762" stroke-width="4" stroke-linecap="round" stroke-linejoin="round"/>
<path d="M68.5417 29.8842V19.5833C68.5417 11.75 64.625 7.83333 56.7917 7.83333H37.2083C29.375 7.83333 25.4583 11.75 25.4583 19.5833V29.61" stroke="#263762" stroke-width="4" stroke-linecap="round" stroke-linejoin="round"/>
<path d="M49.4675 43.0442L51.7 46.53C52.0525 47.0783 52.8358 47.6267 53.4233 47.7833L57.4183 48.8017C59.8858 49.4283 60.5517 51.5433 58.9458 53.5017L56.3217 56.6742C55.93 57.1833 55.6167 58.0842 55.6558 58.7108L55.8908 62.8233C56.0475 65.3692 54.2458 66.6617 51.8958 65.7217L48.0575 64.1942C47.47 63.9592 46.4908 63.9592 45.9033 64.1942L42.065 65.7217C39.715 66.6617 37.9133 65.33 38.07 62.8233L38.305 58.7108C38.3442 58.0842 38.0308 57.1442 37.6392 56.6742L35.015 53.5017C33.4092 51.5433 34.075 49.4283 36.5425 48.8017L40.5375 47.7833C41.1642 47.6267 41.9475 47.0392 42.2608 46.53L44.4933 43.0442C45.9033 40.9292 48.0967 40.9292 49.4675 43.0442Z" stroke="#263762" stroke-width="4" stroke-linecap="round" stroke-linejoin="round"/>
</svg>
