<svg width="84" height="95" viewBox="0 0 84 95" fill="none" xmlns="http://www.w3.org/2000/svg">
<rect x="3.1499" y="17.7545" width="77.7" height="59.1818" rx="1.5" stroke="#263762" stroke-width="4"/>
<line x1="50.3999" y1="34.6546" x2="68.7272" y2="34.6546" stroke="#263762" stroke-width="4"/>
<line x1="50.3999" y1="48.4" x2="68.7272" y2="48.4" stroke="#263762" stroke-width="4"/>
<line x1="50.3999" y1="62.1454" x2="68.7272" y2="62.1454" stroke="#263762" stroke-width="4"/>
<rect x="21.4536" y="31.8102" width="13.3159" height="13.3159" rx="6.65795" stroke="#263762" stroke-width="4"/>
<path d="M43.2595 59.9136C43.6847 61.515 42.3058 62.8807 40.6489 62.8807C37.8221 62.8807 33.2591 62.8807 28.1114 62.8807C22.9637 62.8807 18.4007 62.8807 15.5739 62.8807C13.917 62.8807 12.5381 61.515 12.9633 59.9136C14.5366 53.9876 20.7214 49.5648 28.1114 49.5648C35.5014 49.5648 41.6862 53.9876 43.2595 59.9136Z" stroke="#263762" stroke-width="4"/>
</svg>
